<svg viewBox="0 0 400 220" xmlns="http://www.w3.org/2000/svg" width="400" height="220">
  <rect width="400" height="220" fill="#0f1923"/>
  <!-- Grid dots -->
  <g fill="#1e3a5f" opacity="0.6">
    <rect x="20" y="20" width="2" height="2" rx="1"/>
    <rect x="60" y="20" width="2" height="2" rx="1"/>
    <rect x="100" y="20" width="2" height="2" rx="1"/>
    <rect x="140" y="20" width="2" height="2" rx="1"/>
    <rect x="180" y="20" width="2" height="2" rx="1"/>
    <rect x="220" y="20" width="2" height="2" rx="1"/>
    <rect x="260" y="20" width="2" height="2" rx="1"/>
    <rect x="300" y="20" width="2" height="2" rx="1"/>
    <rect x="340" y="20" width="2" height="2" rx="1"/>
    <rect x="380" y="20" width="2" height="2" rx="1"/>
    <rect x="20" y="60" width="2" height="2" rx="1"/>
    <rect x="60" y="60" width="2" height="2" rx="1"/>
    <rect x="100" y="60" width="2" height="2" rx="1"/>
    <rect x="140" y="60" width="2" height="2" rx="1"/>
    <rect x="180" y="60" width="2" height="2" rx="1"/>
    <rect x="220" y="60" width="2" height="2" rx="1"/>
    <rect x="260" y="60" width="2" height="2" rx="1"/>
    <rect x="300" y="60" width="2" height="2" rx="1"/>
    <rect x="20" y="100" width="2" height="2" rx="1"/>
    <rect x="60" y="100" width="2" height="2" rx="1"/>
    <rect x="100" y="100" width="2" height="2" rx="1"/>
    <rect x="20" y="140" width="2" height="2" rx="1"/>
    <rect x="60" y="140" width="2" height="2" rx="1"/>
    <rect x="300" y="140" width="2" height="2" rx="1"/>
    <rect x="340" y="140" width="2" height="2" rx="1"/>
    <rect x="380" y="140" width="2" height="2" rx="1"/>
    <rect x="300" y="100" width="2" height="2" rx="1"/>
    <rect x="340" y="100" width="2" height="2" rx="1"/>
    <rect x="380" y="100" width="2" height="2" rx="1"/>
  </g>
  <!-- Nodes -->
  <circle cx="80" cy="80" r="14" fill="none" stroke="#1d9e75" stroke-width="1.5"/>
  <circle cx="80" cy="80" r="5" fill="#1d9e75"/>
  <circle cx="200" cy="110" r="14" fill="none" stroke="#1d9e75" stroke-width="1.5"/>
  <circle cx="200" cy="110" r="5" fill="#1d9e75"/>
  <circle cx="320" cy="75" r="14" fill="none" stroke="#1d9e75" stroke-width="1.5"/>
  <circle cx="320" cy="75" r="5" fill="#1d9e75"/>
  <circle cx="150" cy="160" r="14" fill="none" stroke="#1d9e75" stroke-width="1.5"/>
  <circle cx="150" cy="160" r="5" fill="#1d9e75"/>
  <circle cx="260" cy="155" r="14" fill="none" stroke="#1d9e75" stroke-width="1.5"/>
  <circle cx="260" cy="155" r="5" fill="#1d9e75"/>
  <!-- Lines -->
  <line x1="80" y1="80" x2="200" y2="110" stroke="#1d9e75" stroke-width="1" opacity="0.5" stroke-dasharray="4,3"/>
  <line x1="200" y1="110" x2="320" y2="75" stroke="#1d9e75" stroke-width="1" opacity="0.5" stroke-dasharray="4,3"/>
  <line x1="80" y1="80" x2="150" y2="160" stroke="#1d9e75" stroke-width="1" opacity="0.5" stroke-dasharray="4,3"/>
  <line x1="200" y1="110" x2="150" y2="160" stroke="#1d9e75" stroke-width="1" opacity="0.5" stroke-dasharray="4,3"/>
  <line x1="200" y1="110" x2="260" y2="155" stroke="#1d9e75" stroke-width="1" opacity="0.5" stroke-dasharray="4,3"/>
  <line x1="320" y1="75" x2="260" y2="155" stroke="#1d9e75" stroke-width="1" opacity="0.5" stroke-dasharray="4,3"/>
  <!-- Label -->
  <text x="200" y="205" fill="#5dcaa5" font-size="11" text-anchor="middle" font-family="monospace">Wireless Sensor Network</text>
</svg>
